<?xml version="1.0" standalone="no"?>
<!DOCTYPE svg PUBLIC "-//W3C//DTD SVG 20010904//EN"
 "http://www.w3.org/TR/2001/REC-SVG-20010904/DTD/svg10.dtd">
<svg version="1.0" xmlns="http://www.w3.org/2000/svg"
 width="235.000000pt" height="236.000000pt" viewBox="0 0 235.000000 236.000000"
 preserveAspectRatio="xMidYMid meet">
<metadata>
Created by potrace 1.16, written by Peter Selinger 2001-2019
</metadata>
<g transform="translate(0.000000,236.000000) scale(0.100000,-0.100000)"
fill="#000000" stroke="none">
<path d="M845 2348 c-27 -5 -95 -23 -149 -39 -137 -43 -184 -46 -293 -20 -50
11 -106 21 -124 21 -73 -1 -162 -67 -195 -146 -18 -43 -18 -125 1 -194 23 -84
19 -141 -15 -229 -17 -43 -38 -112 -46 -152 -30 -140 -16 -448 21 -479 22 -18
58 6 51 33 -3 12 -11 76 -17 142 -15 151 2 297 51 420 40 100 47 178 26 268
-29 126 -19 176 49 236 43 38 70 39 192 10 111 -27 168 -22 328 27 113 35 128
38 255 38 326 0 631 -130 885 -378 219 -215 361 -490 402 -780 23 -163 14
-264 -38 -423 -50 -152 -57 -220 -35 -325 20 -97 20 -131 0 -174 -32 -68 -147
-105 -228 -74 -15 5 -54 14 -89 20 -58 9 -73 7 -227 -32 -152 -39 -175 -42
-290 -41 -185 1 -346 41 -525 129 -303 151 -578 456 -686 764 -27 77 -35 90
-61 90 -46 0 -30 -71 52 -240 76 -155 160 -271 290 -400 256 -257 558 -397
893 -416 113 -6 177 3 373 55 l122 32 73 -17 c164 -38 241 -29 311 34 75 68
92 140 63 272 -23 103 -19 149 25 283 50 156 64 246 56 369 -32 502 -334 949
-801 1186 -217 110 -513 165 -700 130z"/>
<path d="M1758 1170 c-67 -52 -23 -160 66 -160 36 0 76 39 82 81 9 51 -33 99
-86 99 -22 0 -47 -8 -62 -20z"/>
<path d="M1139 1025 c-38 -20 -52 -67 -35 -110 27 -63 98 -75 148 -25 26 27
30 36 25 68 -11 69 -77 100 -138 67z"/>
<path d="M1503 921 c-83 -22 -156 -42 -162 -46 -32 -19 13 -95 73 -124 54 -27
145 -28 201 -2 76 34 135 124 123 188 -5 30 -70 26 -235 -16z"/>
</g>
</svg>
