<?xml version="1.0" standalone="no"?>
<!DOCTYPE svg PUBLIC "-//W3C//DTD SVG 20010904//EN"
 "http://www.w3.org/TR/2001/REC-SVG-20010904/DTD/svg10.dtd">
<svg version="1.0" xmlns="http://www.w3.org/2000/svg"
 width="826.000000pt" height="826.000000pt" viewBox="0 0 826.000000 826.000000"
 preserveAspectRatio="xMidYMid meet">
<metadata>
Created by potrace 1.14, written by Peter Selinger 2001-2017
</metadata>
<g transform="translate(0.000000,826.000000) scale(0.100000,-0.100000)"
fill="#000000" stroke="none">
<path d="M0 4132 l0 -927 4130 0 4130 0 0 927 0 928 -4130 0 -4130 0 0 -928z
m4730 897 c-19 -11 -41 -28 -48 -37 -10 -14 -30 -17 -95 -17 -45 0 -102 4
-127 7 -179 27 -297 27 -438 2 -54 -10 -150 -47 -221 -85 -93 -50 -118 -70
-115 -92 3 -23 -42 -57 -77 -57 -28 0 -34 -8 -29 -39 2 -17 -40 -62 -51 -55
-42 25 -199 -222 -235 -368 -34 -144 -37 -302 -9 -488 4 -25 8 -75 10 -113 2
-63 0 -70 -31 -111 -18 -24 -36 -55 -40 -70 -3 -14 -9 -24 -13 -21 -10 6 -14
-87 -4 -94 4 -3 19 -28 33 -55 21 -43 55 -76 115 -111 11 -7 -537 -10 -1657
-9 -920 1 -1676 2 -1680 3 -5 0 -8 413 -8 916 l0 915 2378 0 2377 0 -35 -21z
m3518 -896 l-3 -918 -2367 0 c-1303 0 -2368 1 -2368 2 0 0 15 10 33 22 17 11
45 29 60 40 32 21 67 21 267 -3 135 -16 281 -14 369 6 31 6 58 12 61 13 58 12
182 72 265 128 85 58 232 208 292 298 125 190 171 412 136 662 -7 51 -15 128
-18 172 -5 84 -5 87 48 162 71 101 27 249 -93 313 -34 19 -2 19 1643 20 l1677
0 -2 -917z"/>
</g>
</svg>
